<?xml version="1.0" encoding="UTF-8" standalone="no"?>
<!-- Created with Inkscape (http://www.inkscape.org/) -->

<svg
   width="32"
   height="32"
   viewBox="0 0 32.253969 32.253971"
   version="1.1"
   id="svg5"
   xmlns="http://www.w3.org/2000/svg"
   xmlns:svg="http://www.w3.org/2000/svg">
  <defs
     id="defs2" />
  <path
     id="path1"
     style="fill:#00292e;fill-opacity:1;stroke:none;stroke-width:3.83977px;stroke-linecap:butt;stroke-linejoin:miter;stroke-opacity:1"
     d="m 16.108986,4.9976853 0.0075,3.1423021 h 0.0075 c 5.039683,0 9.066929,3.9522516 9.066929,8.9919336 0,5.039683 -4.027246,9.018932 -9.066929,9.006933 -5.039693,-0.012 -9.0849379,-3.96725 -9.0819383,-9.006933 0.00178,-2.998298 1.4324941,-5.611811 3.6522703,-7.2370441 L 8.7444495,7.2925409 C 5.800848,9.435878 4.019747,12.931851 4.019747,17.139421 c 0,7.055556 5.0486834,12.05624 12.104238,12.089239 7.055555,0.03299 12.066741,-5.041183 12.066741,-12.096739 0,-7.055555 -4.981444,-12.1672262 -12.066741,-12.1342357 -0.005,2.32e-5 -0.01,-2.86e-5 -0.01501,0 z" />
  <path
     style="fill:#00292e;fill-opacity:1;stroke:none;stroke-width:3.83977px;stroke-linecap:butt;stroke-linejoin:miter;stroke-opacity:1"
     d="M 13.103176,6.4975912 18.142859,2.0158731 V 11.087302 Z"
     id="path3" />
</svg>
